<?xml version="1.0" encoding="UTF-8" standalone="no"?>
<!-- Created with Inkscape (http://www.inkscape.org/) -->
<svg
   xmlns:svg="http://www.w3.org/2000/svg"
   xmlns="http://www.w3.org/2000/svg"
   xmlns:xlink="http://www.w3.org/1999/xlink"
   version="1.0"
   width="144"
   height="56"
   id="svg2">
  <defs
     id="defs5" />
  <g
     id="g3239">
    <g
       id="g3226">
      <rect
         width="113.41608"
         height="25.41016"
         rx="12.70508"
         ry="12.70508"
         x="15.291962"
         y="3.9132285"
         id="rect2384"
         style="fill:#ffffff;fill-opacity:1;stroke:#ff0000;stroke-width:3.40867996;stroke-linecap:round;stroke-linejoin:round;stroke-miterlimit:4;stroke-dasharray:none;stroke-dashoffset:0;stroke-opacity:1" />
      <path
         d="M 39.307662,23.280728 L 39.307662,9.9558885 L 35.279222,9.9558885 L 35.279222,19.252288 L 29.391502,9.9558885 L 25.053182,9.9558885 L 25.053182,23.280728 L 29.081622,23.280728 L 29.081622,13.674449 L 35.279222,23.280728 L 39.307662,23.280728 z"
         id="path3156"
         style="fill:#ff0000;fill-opacity:1;fill-rule:evenodd;stroke:none;stroke-width:1px;stroke-linecap:butt;stroke-linejoin:miter;stroke-opacity:1" />
      <path
         d="M 45.815142,23.280728 L 45.815142,14.294208 L 41.786702,14.294208 L 41.786702,23.280728 L 45.815142,23.280728 z"
         id="path3158"
         style="fill:#ff0000;fill-opacity:1;fill-rule:evenodd;stroke:none;stroke-width:1px;stroke-linecap:butt;stroke-linejoin:miter;stroke-opacity:1" />
      <path
         d="M 45.815142,12.434928 L 45.815142,9.9558885 L 41.786702,9.9558885 L 41.786702,12.434928 L 45.815142,12.434928 z"
         id="path3160"
         style="fill:#ff0000;fill-opacity:1;fill-rule:evenodd;stroke:none;stroke-width:1px;stroke-linecap:butt;stroke-linejoin:miter;stroke-opacity:1" />
      <path
         d="M 59.759742,23.280728 L 59.759742,17.083128 C 59.759742,15.843609 57.280702,13.984329 56.041182,13.984329 L 54.801662,13.984329 C 53.872022,13.984329 52.862256,14.846286 52.012742,15.223849 L 52.012742,14.294208 L 47.984302,14.294208 L 47.984302,23.280728 L 52.012742,23.280728 L 52.012742,17.083128 C 52.012742,16.463368 53.407202,15.843609 54.026962,15.843609 C 54.646722,15.843609 55.731302,16.463368 55.731302,17.083128 L 55.731302,23.280728 L 59.759742,23.280728 z"
         id="path3162"
         style="fill:#ff0000;fill-opacity:1;fill-rule:evenodd;stroke:none;stroke-width:1px;stroke-linecap:butt;stroke-linejoin:miter;stroke-opacity:1" />
      <use
         transform="translate(33.46704,0.30988)"
         id="use3164"
         style="fill:#ff0000;fill-opacity:1"
         x="0"
         y="0"
         width="467"
         height="187"
         xlink:href="#path3162" />
      <path
         d="M 66.267222,23.280728 L 66.267222,14.294208 L 68.436382,14.294208 L 68.436382,13.054689 L 66.267222,13.054689 L 66.267222,11.195409 L 62.238782,11.195409 L 62.238782,13.054689 L 60.069622,13.054689 L 60.069622,14.294208 L 62.238782,14.294208 L 62.238782,23.280728 L 66.267222,23.280728 z"
         id="path3166"
         style="fill:#ff0000;fill-opacity:1;fill-rule:evenodd;stroke:none;stroke-width:1px;stroke-linecap:butt;stroke-linejoin:miter;stroke-opacity:1" />
      <path
         d="M 74.014222,13.984329 C 70.764201,13.984329 68.126502,16.205548 68.126502,18.942408 C 68.126502,21.679268 70.764197,23.900488 74.014222,23.900488 C 76.753952,23.900488 79.052115,22.317125 79.708267,20.181928 L 75.563622,20.181928 L 75.563622,21.421449 C 75.563622,22.351088 74.943862,22.660968 74.014222,22.660968 C 73.084582,22.660968 72.464822,22.351088 72.464822,21.421449 L 72.464822,18.942408 L 79.901942,18.942408 C 79.901942,16.205547 77.264243,13.984329 74.014222,13.984329 z M 74.014222,14.913969 C 74.943862,14.913969 75.563622,15.533729 75.563622,16.463368 L 75.563622,17.393008 L 72.464822,17.393008 L 72.464822,16.463368 C 72.464822,15.533729 73.084582,14.913969 74.014222,14.913969 z"
         id="path3168"
         style="fill:#ff0000;fill-opacity:1;stroke:none;stroke-width:11;stroke-linecap:round;stroke-linejoin:round;stroke-miterlimit:4;stroke-dashoffset:0;stroke-opacity:0.50196078" />
      <path
         d="M 113.36898,13.984329 C 110.11896,13.984329 107.48126,16.205547 107.48126,18.942408 C 107.48126,21.679268 110.11896,23.900488 113.36898,23.900488 C 116.619,23.900488 119.2567,21.679268 119.2567,18.942408 C 119.2567,16.205547 116.619,13.984328 113.36898,13.984329 z M 113.36898,14.913969 C 114.29862,14.913968 114.91838,15.533729 114.91838,16.463368 L 114.91838,21.421449 C 114.91838,22.351088 114.29862,22.660968 113.36898,22.660968 C 112.43934,22.660968 111.81958,22.351088 111.81958,21.421449 L 111.81958,16.463368 C 111.81958,15.533727 112.43934,14.913969 113.36898,14.913969 z"
         id="path3182"
         style="fill:#ff0000;fill-opacity:1;stroke:none;stroke-width:11;stroke-linecap:round;stroke-linejoin:round;stroke-miterlimit:4;stroke-dashoffset:0;stroke-opacity:0.50196078" />
      <path
         d="M 101.90342,9.9558885 L 101.90342,14.913969 C 101.90342,14.913969 100.6639,13.984329 99.114502,13.984329 C 96.635462,13.984329 94.466302,16.153488 94.466302,18.632528 C 94.466302,21.111568 96.635462,23.590608 99.114502,23.590608 C 100.6639,23.590608 101.90342,22.970848 101.90342,22.970848 L 101.90342,23.280728 L 105.93186,23.280728 L 105.93186,9.9558885 L 101.90342,9.9558885 z M 100.35402,15.533729 C 101.28366,15.533729 101.90342,16.153488 101.90342,17.083128 L 101.90342,20.801688 C 101.90342,21.731329 101.28366,22.041208 100.35402,22.041208 C 99.424382,22.041208 98.804622,21.731329 98.804622,20.801688 L 98.804622,17.083128 C 98.804622,16.153488 99.424382,15.533729 100.35402,15.533729 z"
         id="path3192"
         style="fill:#ff0000;fill-opacity:1;fill-rule:evenodd;stroke:none;stroke-width:1px;stroke-linecap:butt;stroke-linejoin:miter;stroke-opacity:1" />
      <path
         d="M 121.6749,12.053533 C 121.6749,13.116111 120.82835,13.978487 119.78527,13.978487 C 118.74219,13.978487 117.89564,13.116111 117.89564,12.053533 C 117.89564,10.990958 118.74219,10.128577 119.78527,10.128577 C 120.82835,10.128577 121.6749,10.990958 121.6749,12.053533 z M 120.29911,12.946969 L 119.94165,12.23222 L 119.22675,12.23222 L 119.94165,12.23222 C 120.47783,12.23222 120.47783,11.160096 119.94165,11.160096 L 119.22675,11.160096 L 119.22675,12.946969"
         id="path3201"
         style="fill:none;fill-opacity:0.50196078;stroke:#ff0000;stroke-width:0.31939518;stroke-linecap:round;stroke-linejoin:round;stroke-miterlimit:4;stroke-dashoffset:0;stroke-opacity:1" />
    </g>
    <g
       id="g2479">
      <path
         d="M 23.607834,42.834395 L 23.607834,36.990811 C 23.607834,35.895139 22.512162,34.799469 21.416491,34.799469 L 13.016341,34.799469 L 13.016341,42.834395 L 15.572908,42.834395 L 15.572908,37.356036 C 15.572908,36.990811 15.938132,36.625588 16.303356,36.625588 L 20.320819,36.625588 C 20.686043,36.625588 21.051267,36.990811 21.051267,37.356036 L 21.051267,42.834395 L 23.607834,42.834395 z"
         id="path2399"
         style="fill:#000000;fill-opacity:1;fill-rule:evenodd;stroke:none;stroke-width:1px;stroke-linecap:butt;stroke-linejoin:miter;stroke-opacity:1" />
      <use
         transform="translate(69.392541,0)"
         id="use3171"
         style="fill:#000000;fill-opacity:1"
         x="0"
         y="0"
         width="467"
         height="187"
         xlink:href="#path2399" />
      <use
         transform="translate(37.983286,0)"
         id="use3173"
         style="fill:#000000;fill-opacity:1"
         x="0"
         y="0"
         width="467"
         height="187"
         xlink:href="#use3171" />
      <path
         d="M 108.33978,42.834395 L 108.33978,36.990813 C 108.33978,35.895141 107.24411,34.799469 106.14843,34.799469 L 94.826494,34.799469 L 94.826494,42.834395 L 97.383061,42.834395 L 97.383061,37.356037 C 97.383061,36.990813 97.748281,36.625588 98.113511,36.625588 L 99.574401,36.625588 C 99.939631,36.625588 100.30485,36.990813 100.30485,37.356037 L 100.30485,42.834395 L 102.86142,42.834395 L 102.86142,37.356037 C 102.86142,36.990813 103.22664,36.625588 103.59187,36.625588 L 105.05276,36.625588 C 105.41799,36.625588 105.78321,36.990813 105.78321,37.356037 L 105.78321,42.834395 L 108.33978,42.834395 z"
         id="path3177"
         style="fill:#000000;fill-opacity:1;fill-rule:evenodd;stroke:none;stroke-width:1px;stroke-linecap:butt;stroke-linejoin:miter;stroke-opacity:1" />
      <path
         d="M 11.190221,42.834395 L 4.6161907,42.834395 C 3.520519,42.834395 2.4248473,42.103946 2.4248473,41.008276 L 2.4248473,34.732081 L 11.190221,34.732081 L 11.190221,36.5582 L 5.3466385,36.5582 C 4.9814146,36.5582 4.6161907,36.923425 4.6161907,37.288649 C 4.6161907,37.653872 4.9814146,38.019097 5.3466385,38.019097 L 10.824997,38.019097 L 10.824997,39.614768 L 5.3466385,39.614768 C 4.9814146,39.614768 4.6161907,39.979992 4.6161907,40.345216 C 4.6161907,40.71044 4.9814146,41.075664 5.3466385,41.075664 L 11.190221,41.075664 L 11.190221,42.834395 z"
         id="path3181"
         style="fill:#000000;fill-opacity:1;fill-rule:evenodd;stroke:none;stroke-width:1px;stroke-linecap:butt;stroke-linejoin:miter;stroke-opacity:1" />
      <use
         transform="translate(32.504927,0)"
         id="use2385"
         style="fill:#000000;fill-opacity:1"
         x="0"
         y="0"
         width="467"
         height="187"
         xlink:href="#path3181" />
      <use
         transform="translate(107.74105,-1.1764415e-7)"
         id="use2387"
         style="fill:#000000;fill-opacity:1"
         x="0"
         y="0"
         width="467"
         height="187"
         xlink:href="#path3181" />
      <path
         d="M 24.703506,34.799469 L 24.703506,36.625588 L 27.260073,36.625588 C 27.990521,36.625588 27.990521,36.625589 27.990521,37.356037 L 27.990521,42.834395 L 30.547088,42.834395 L 30.547088,37.356037 C 30.547088,36.625589 30.547088,36.625588 31.277536,36.625588 L 33.834103,36.625588 L 33.834103,34.799469 L 24.703506,34.799469 z"
         id="path2391"
         style="fill:#000000;fill-opacity:1;fill-rule:evenodd;stroke:none;stroke-width:1px;stroke-linecap:butt;stroke-linejoin:miter;stroke-opacity:1" />
      <use
         transform="translate(31.774479,0)"
         id="use3166"
         style="fill:#000000;fill-opacity:1"
         x="0"
         y="0"
         width="467"
         height="187"
         xlink:href="#path2391" />
      <use
         transform="translate(107.74105,0)"
         id="use3170"
         style="fill:#000000;fill-opacity:1"
         x="0"
         y="0"
         width="467"
         height="187"
         xlink:href="#path2391" />
      <path
         d="M 45.521268,34.799469 L 45.521268,42.834395 L 48.077835,42.834395 L 48.077835,41.3735 C 48.077835,41.008276 48.443059,40.643052 48.808283,40.643052 L 52.095298,40.643052 C 52.460522,40.643052 52.825746,41.008276 52.825746,41.3735 L 52.825746,42.834395 L 55.017089,42.834395 L 55.017089,40.643052 C 55.017089,40.277828 54.651865,39.912604 54.651865,39.54738 C 54.651865,39.182156 55.382313,38.451709 55.382313,37.72126 L 55.382313,36.990813 C 55.382313,36.260365 54.286641,34.799469 53.556194,34.799469 L 45.521268,34.799469 z M 48.808283,36.625588 L 52.095298,36.625588 C 52.460522,36.625588 52.825746,36.990813 52.825746,37.356037 L 52.825746,38.086485 C 52.825746,38.451709 52.460522,38.816932 52.095298,38.816932 L 48.808283,38.816932 C 48.443059,38.816932 48.077835,38.451709 48.077835,38.086485 L 48.077835,37.356037 C 48.077835,36.990813 48.443059,36.625588 48.808283,36.625588 z"
         id="path3172"
         style="fill:#000000;fill-opacity:1;fill-rule:evenodd;stroke:none;stroke-width:1px;stroke-linecap:butt;stroke-linejoin:miter;stroke-opacity:1" />
      <path
         d="M 68.530374,34.799469 C 67.799926,34.799469 66.704254,36.260365 66.704254,36.990813 L 66.704254,42.834395 L 69.260821,42.834395 L 69.260821,40.643052 L 74.008732,40.643052 L 74.008732,42.834395 L 76.565299,42.834395 L 76.565299,36.990813 C 76.565299,36.260365 75.469628,34.799469 74.73918,34.799469 L 68.530374,34.799469 z M 69.991269,36.625588 L 73.278284,36.625588 C 73.643508,36.625588 74.008732,36.990813 74.008732,37.356037 L 74.008732,38.816932 L 69.260821,38.816932 L 69.260821,37.356037 C 69.260821,36.990813 69.626045,36.625588 69.991269,36.625588 z"
         id="path3179"
         style="fill:#000000;fill-opacity:1;fill-rule:evenodd;stroke:none;stroke-width:1px;stroke-linecap:butt;stroke-linejoin:miter;stroke-opacity:1" />
      <path
         d="M 80.947986,42.834395 L 80.947986,34.799469 L 78.391419,34.799469 L 78.391419,42.834395 L 80.947986,42.834395 z"
         id="path3185"
         style="fill:#000000;fill-opacity:1;fill-rule:evenodd;stroke:none;stroke-width:1px;stroke-linecap:butt;stroke-linejoin:miter;stroke-opacity:1" />
      <use
         transform="translate(-3.2870161,10.957013)"
         id="use3179"
         style="fill:#000000;fill-opacity:1"
         x="0"
         y="0"
         width="467"
         height="187"
         xlink:href="#path3177" />
      <use
         transform="translate(78.523138,10.957013)"
         id="use2389"
         style="fill:#000000;fill-opacity:1"
         x="0"
         y="0"
         width="467"
         height="187"
         xlink:href="#path3181" />
      <use
         transform="translate(46.01821,10.957013)"
         id="use3168"
         style="fill:#000000;fill-opacity:1"
         x="0"
         y="0"
         width="467"
         height="187"
         xlink:href="#path2391" />
      <path
         d="M 41.138579,45.756186 C 40.408131,45.756186 38.947236,46.851858 38.947236,47.582306 L 38.947236,48.677978 C 38.947236,49.408425 40.408131,50.504097 41.138579,50.504097 L 45.521266,50.504097 C 45.88649,50.504097 46.251714,50.869321 46.251714,51.234545 C 46.251714,51.599769 45.88649,51.964993 45.521266,51.964993 L 38.947236,51.964993 L 38.947236,53.791111 L 46.251714,53.791111 C 46.982162,53.791111 48.443057,52.695441 48.443057,51.964993 L 48.443057,50.869321 C 48.443057,50.138873 46.982162,49.043202 46.251714,49.043202 L 41.869027,49.043202 C 41.503803,49.043202 41.138579,48.677978 41.138579,48.312753 C 41.138579,47.94753 41.503803,47.582306 41.869027,47.582306 L 48.443057,47.582306 L 48.443057,45.756186 L 41.138579,45.756186 z"
         id="path3187"
         style="fill:#000000;fill-opacity:1;fill-rule:evenodd;stroke:none;stroke-width:1px;stroke-linecap:butt;stroke-linejoin:miter;stroke-opacity:1" />
      <use
         transform="translate(21.182986,0)"
         id="use3192"
         style="fill:#000000;fill-opacity:1"
         x="0"
         y="0"
         width="467"
         height="187"
         xlink:href="#path3187" />
      <path
         d="M 49.173505,45.756186 L 49.173505,49.408425 C 49.173505,50.138873 50.269177,51.234545 50.999624,51.234545 L 52.825744,51.234545 L 52.825744,53.791111 L 55.382311,53.791111 L 55.382311,51.234545 L 57.208431,51.234545 C 57.938878,51.234545 59.03455,50.138873 59.03455,49.408425 L 59.03455,45.756186 L 56.477983,45.756186 L 56.477983,48.677978 C 56.477983,49.043202 56.112759,49.408425 55.747535,49.408425 L 52.46052,49.408425 C 52.095296,49.408425 51.730072,49.043202 51.730072,48.677978 L 51.730072,45.756186 L 49.173505,45.756186 z"
         id="path3194"
         style="fill:#000000;fill-opacity:1;fill-rule:evenodd;stroke:none;stroke-width:1px;stroke-linecap:butt;stroke-linejoin:miter;stroke-opacity:1" />
    </g>
  </g>
</svg>
